<?xml version="1.0" encoding="UTF-8" standalone="no"?>
<!DOCTYPE svg PUBLIC "-//W3C//DTD SVG 1.1//EN" "http://www.w3.org/Graphics/SVG/1.1/DTD/svg11.dtd">
<svg width="100%" height="100%" viewBox="0 0 2560 2560" version="1.1" xmlns="http://www.w3.org/2000/svg" xmlns:xlink="http://www.w3.org/1999/xlink" xml:space="preserve" xmlns:serif="http://www.serif.com/" style="fill-rule:evenodd;clip-rule:evenodd;stroke-linejoin:round;stroke-miterlimit:2;">
    <g transform="matrix(1,0,0,1,-5509,-2883)">
        <g id="Página-6" serif:id="Página 6" transform="matrix(1,0,0,1,-0.666667,0)">
            <rect x="5509.667" y="2883" width="2560" height="2560" style="fill:none;"/>
            <g transform="matrix(1.498053,0,0,1.498053,3791.422018,1015.356296)">
                <circle cx="2001.427" cy="2101.156" r="821.156" style="fill:rgb(6,1,33);"/>
            </g>
            <g transform="matrix(1.386912,0,0,1.386912,-2627.48344,-1611.383339)">
                <g transform="matrix(0.989244,0,0,0.989244,6655.079202,4345.563721)">
                    <path d="M0,267.934C-73.907,196.765 -136.287,111.03 -182.426,12.563C-184.385,8.413 -186.288,4.235 -188.162,0.057C-188.275,-0.198 -188.389,-0.451 -188.502,-0.706L-195.033,9.598L-359.089,268.64L0.738,268.64C0.483,268.414 0.256,268.16 0,267.934" style="fill:white;fill-rule:nonzero;"/>
                </g>
                <g transform="matrix(0.989244,0,0,0.989244,7280.173198,3478.385924)">
                    <path d="M0,1385.091L-53.01,1384.244C-266.641,1380.772 -474.081,1295.799 -630.414,1145.952C-630.67,1145.726 -630.897,1145.472 -631.152,1145.246C-631.408,1145.021 -631.635,1144.766 -631.891,1144.541L-530.726,1144.541C-530.442,1144.766 -530.186,1145.021 -529.902,1145.246L-319.452,1145.246L-561.759,626.486C-563.179,623.437 -565.025,620.586 -567.211,617.989C-577.148,606.161 -587.058,598.058 -596.882,593.824C-617.495,584.931 -637.853,593.062 -657.956,619.683C-658.58,620.53 -659.205,621.433 -659.773,622.336L-755.401,773.227L-755.997,772.86L-820.734,875.111C-931.865,626.684 -915.312,353.443 -798.19,130.988C-789.984,115.405 -781.296,100.076 -772.096,85.029C-771.33,83.759 -770.364,82.601 -769.569,81.331C-744.896,42.345 -708.808,19.281 -667.922,8.158C-647.223,2.54 -625.332,0 -603.015,0C-557.358,0 -514.314,14.623 -479.164,40.059C-444.013,65.494 -416.784,101.742 -402.757,144.934L-11.073,1351.017L0,1385.091Z" style="fill:white;fill-rule:nonzero;"/>
                </g>
            </g>
        </g>
    </g>
</svg>
