<?xml version="1.0" encoding="UTF-8" standalone="no"?>
<!DOCTYPE svg PUBLIC "-//W3C//DTD SVG 1.1//EN" "http://www.w3.org/Graphics/SVG/1.1/DTD/svg11.dtd">
<svg width="100%" height="100%" viewBox="0 0 2560 1440" version="1.1" xmlns="http://www.w3.org/2000/svg" xmlns:xlink="http://www.w3.org/1999/xlink" xml:space="preserve" xmlns:serif="http://www.serif.com/" style="fill-rule:evenodd;clip-rule:evenodd;stroke-linejoin:round;stroke-miterlimit:2;">
    <g transform="matrix(1,0,0,1,-8135,-2883)">
        <g id="Página-7" serif:id="Página 7" transform="matrix(1,0,0,0.5625,-0.666667,1261.3125)">
            <rect x="8135.667" y="2883" width="2560" height="2560" style="fill:none;"/>
            <clipPath id="_clip1">
                <rect x="8135.667" y="2883" width="2560" height="2560"/>
            </clipPath>
            <g clip-path="url(#_clip1)">
                <g transform="matrix(1.719828,0,0,3.057472,8353.795879,4179.256494)">
                    <path d="M0,94.636C-26.105,69.499 -48.138,39.217 -64.434,4.437C-65.126,2.972 -65.798,1.496 -66.46,0.02C-66.5,-0.07 -66.54,-0.159 -66.58,-0.249L-68.887,3.39L-126.832,94.885L0.261,94.885C0.171,94.805 0.09,94.716 0,94.636" style="fill:rgb(65,46,206);fill-rule:nonzero;"/>
                </g>
                <g transform="matrix(1.719828,0,0,3.057472,10372.36769,3504.930471)">
                    <path d="M0,310.818L-104.211,310.818L-68.063,130.039C-65.602,117.724 -58.808,109.441 -51.168,109.441C-50.475,109.441 -49.792,109.532 -49.115,109.665L-49.069,109.441L-49.021,109.685C-45.955,110.316 -43.086,112.258 -40.663,115.262C-32.453,124.521 -14.054,240.408 0,310.818M-48.175,-89.073C-80.224,-89.073 -108.727,-68.961 -119.053,-39.059L-270.701,399.891L166.49,399.891L23.087,-37.933C18.096,-53.173 8.406,-65.963 -4.102,-74.938C-16.531,-84.669 -31.632,-88.599 -48.175,-89.073" style="fill:white;fill-rule:nonzero;"/>
                </g>
                <g transform="matrix(1.719828,0,0,3.057472,8932.021454,3232.592283)">
                    <path d="M0,489.223C-62.421,489.223 -113.024,438.997 -113.024,377.041L-113.024,112.847L-206.653,112.847L-206.653,0L94.298,0L94.298,112.847L0,112.847L0,489.223Z" style="fill:white;fill-rule:nonzero;"/>
                </g>
                <g transform="matrix(1.719828,0,0,3.057472,9346.669381,3978.442967)">
                    <path d="M0,1.336C8.694,-1.337 18.726,-6.016 28.757,-13.367C37.451,-19.382 43.47,-26.734 48.152,-35.422C52.833,-42.774 54.84,-51.462 54.84,-61.487C54.84,-71.512 52.833,-80.201 48.152,-87.553C43.47,-95.572 36.783,-102.924 28.757,-108.939C18.726,-115.623 9.363,-120.969 0,-124.311C-11.369,-127.653 -23.408,-129.658 -34.777,-130.326L-34.777,8.019C-22.07,7.351 -10.701,4.678 0,1.336M-8.026,118.964C-12.038,119.632 -14.713,119.632 -16.719,120.3C-18.726,120.969 -21.401,120.969 -25.414,120.969C-29.427,120.969 -32.771,120.969 -34.777,121.637L-34.777,245.279C-97.198,245.279 -147.801,194.711 -147.801,132.331L-147.801,-243.943L-34.777,-243.943C-6.019,-243.275 20.731,-237.928 44.139,-228.571C69.553,-218.546 90.954,-205.18 109.011,-189.14C127.737,-171.763 142.45,-152.381 152.482,-131.663C162.513,-108.939 167.863,-85.547 167.863,-61.487C167.863,-34.754 162.513,-10.694 151.144,11.361C139.774,34.085 124.393,53.466 104.33,70.175L212.671,245.279L79.585,245.279L0.668,118.295C-1.338,118.295 -4.682,118.295 -8.026,118.964" style="fill:white;fill-rule:nonzero;"/>
                </g>
                <g transform="matrix(0,3.057472,1.719828,0,10230.307842,4153.269818)">
                    <path d="M-301.123,-188.099L188.099,-188.099L188.099,-301.123L-188.636,-301.123C-250.761,-301.123 -301.123,-250.52 -301.123,-188.099Z" style="fill:white;fill-rule:nonzero;"/>
                </g>
                <g transform="matrix(1.719828,0,0,3.057472,8737.640313,3232.592283)">
                    <path d="M0,489.223L-18.723,488.924C-94.179,487.697 -167.448,457.684 -222.666,404.758C-222.756,404.678 -222.837,404.588 -222.927,404.508C-223.017,404.429 -223.097,404.339 -223.188,404.259L-187.456,404.259C-187.355,404.339 -187.265,404.429 -187.165,404.508L-112.832,404.508L-198.417,221.279C-198.918,220.202 -199.57,219.195 -200.342,218.278C-203.852,214.1 -207.352,211.238 -210.822,209.743C-218.103,206.602 -225.294,209.473 -232.394,218.876C-232.615,219.175 -232.835,219.494 -233.036,219.813L-266.812,273.109L-267.023,272.979L-289.888,309.095C-329.14,221.349 -323.294,124.839 -281.925,46.266C-279.027,40.762 -275.958,35.348 -272.709,30.033C-272.438,29.585 -272.097,29.176 -271.817,28.727C-263.102,14.957 -250.355,6.81 -235.914,2.882C-228.603,0.898 -220.871,0 -212.988,0C-196.862,0 -181.659,5.165 -169.243,14.149C-156.828,23.133 -147.211,35.936 -142.256,51.192L-3.911,477.188L0,489.223Z" style="fill:white;fill-rule:nonzero;"/>
                </g>
                <g transform="matrix(1.719828,0,0,3.057472,7700.624848,1312.784628)">
                    <text x="1383.806px" y="1313.764px" style="font-family:'ArialMT', 'Arial', sans-serif;font-size:193.884px;fill:white;">L<tspan x="1492.784px 1623.253px " y="1313.764px 1313.764px ">AB</tspan></text>
                </g>
            </g>
        </g>
    </g>
</svg>
